<svg width="10" height="9" viewBox="0 0 10 9" fill="none" xmlns="http://www.w3.org/2000/svg">
<path fill-rule="evenodd" clip-rule="evenodd" d="M5.30247 0.418544C5.48553 0.235485 5.78233 0.235485 5.96538 0.418544L9.71539 4.16854C9.76033 4.21349 9.79424 4.26528 9.81711 4.32057C9.83969 4.37502 9.8523 4.43466 9.85267 4.49719C9.85268 4.49813 9.85268 4.49906 9.85268 4.5C9.85268 4.50094 9.85268 4.50188 9.85267 4.50281C9.8523 4.56535 9.83969 4.62498 9.81711 4.67943C9.79424 4.73472 9.76033 4.78651 9.71539 4.83146L5.96538 8.58146C5.78233 8.76451 5.48553 8.76451 5.30247 8.58146C5.11941 8.3984 5.11941 8.1016 5.30247 7.91854L8.25227 4.96875H0.8125C0.553617 4.96875 0.34375 4.75888 0.34375 4.5C0.34375 4.24112 0.553617 4.03125 0.8125 4.03125H8.25227L5.30247 1.08146C5.11941 0.898398 5.11941 0.601602 5.30247 0.418544Z" fill="#092C4F"/>
</svg>
