<svg width="21" height="23" viewBox="0 0 21 23" fill="none" xmlns="http://www.w3.org/2000/svg">
<path fill-rule="evenodd" clip-rule="evenodd" d="M0.820352 10.9296C0.393216 10.5025 0.393216 9.80999 0.820352 9.38285L9.57035 0.632851C9.67522 0.527985 9.79608 0.448866 9.92508 0.395491C10.0521 0.342802 10.1913 0.313375 10.3372 0.312517C10.3394 0.312506 10.3416 0.3125 10.3438 0.3125C10.3459 0.3125 10.3481 0.312506 10.3503 0.312517C10.4962 0.313375 10.6354 0.342802 10.7624 0.395491C10.8914 0.448866 11.0123 0.527985 11.1171 0.632851L19.8671 9.38285C20.2943 9.80999 20.2943 10.5025 19.8671 10.9296C19.44 11.3568 18.7475 11.3568 18.3204 10.9296L11.4375 4.04679L11.4375 21.4062C11.4375 22.0103 10.9478 22.5 10.3438 22.5C9.73969 22.5 9.25 22.0103 9.25 21.4062L9.25 4.04679L2.36715 10.9296C1.94001 11.3568 1.24749 11.3568 0.820352 10.9296Z" fill="#5C5C5C"/>
</svg>
