<svg width="19" height="17" viewBox="0 0 19 17" fill="none" xmlns="http://www.w3.org/2000/svg">
<path fill-rule="evenodd" clip-rule="evenodd" d="M1.66671 0.166664C1.20647 0.166664 0.833374 0.53976 0.833374 0.999997C0.833374 1.46023 1.20647 1.83333 1.66671 1.83333H2.68335L3.35346 4.51624L4.74789 11.4901C4.86122 12.057 5.16753 12.5671 5.61468 12.9336C6.06177 13.3 6.62233 13.5001 7.20038 13.5H15.1584C15.7784 13.5 16.3762 13.2696 16.8359 12.8536C17.2955 12.4376 17.5842 11.8656 17.6459 11.2487L18.1459 6.24875C18.1807 5.90121 18.1422 5.55024 18.033 5.21847C17.9238 4.8867 17.7463 4.58149 17.512 4.32252C17.2776 4.06354 16.9916 3.85655 16.6723 3.71488C16.3531 3.57321 16.0077 3.50001 15.6584 3.5H4.8175L4.30006 1.42833C4.20978 1.06792 4.00165 0.748012 3.70874 0.519423C3.41583 0.290834 3.05492 0.166674 2.68337 0.166664H1.66671ZM6.66671 15.1667C6.20647 15.1667 5.83337 15.5398 5.83337 16C5.83337 16.4602 6.20647 16.8333 6.66671 16.8333H8.33337C8.79361 16.8333 9.16671 16.4602 9.16671 16C9.16671 15.5398 8.79361 15.1667 8.33337 15.1667H6.66671ZM13.3334 15.1667C12.8731 15.1667 12.5 15.5398 12.5 16C12.5 16.4602 12.8731 16.8333 13.3334 16.8333H15C15.4603 16.8333 15.8334 16.4602 15.8334 16C15.8334 15.5398 15.4603 15.1667 15 15.1667H13.3334ZM6.38221 11.1633L5.18317 5.16666H15.6584C15.7748 5.16667 15.8899 5.19107 15.9963 5.23829C16.1027 5.28551 16.1981 5.35451 16.2762 5.44084C16.3543 5.52716 16.4135 5.6289 16.4499 5.73949C16.4863 5.85008 16.4991 5.96707 16.4875 6.08291L15.9875 11.0829C15.967 11.2885 15.8707 11.4792 15.7175 11.6179C15.5643 11.7565 15.365 11.8333 15.1584 11.8333H7.19972C7.007 11.8334 6.82021 11.7667 6.67115 11.6445C6.5221 11.5224 6.41998 11.3523 6.38221 11.1633Z" fill="#092C4F"/>
</svg>
