<svg width="10" height="17" viewBox="0 0 10 17" fill="none" xmlns="http://www.w3.org/2000/svg">
<path d="M6.69817 12.355C7.60295 12.1473 8.46363 11.7913 9.24886 11.2983C9.83912 10.903 9.99903 10.1061 9.60323 9.51369C9.22442 8.94628 8.46628 8.77467 7.87975 9.1232C6.07285 10.2522 3.77611 10.2522 1.96922 9.1232C1.37152 8.74439 0.577256 8.92396 0.198451 9.52113C0.198451 9.52378 0.198451 9.52378 0.198451 9.52378C-0.180354 10.1247 -0.000780337 10.9184 0.600101 11.2945L0.602226 11.2972C1.38587 11.7902 2.24655 12.1467 3.14814 12.3518L0.693607 14.8058C0.192607 15.2988 0.185169 16.1005 0.674481 16.6021L0.696263 16.6239C0.940122 16.8751 1.26952 17 1.59891 17C1.92831 17 2.25717 16.8751 2.5005 16.6239L4.92475 14.2134L7.33465 16.627C7.84681 17.1164 8.6602 17.1052 9.15323 16.5936C9.63404 16.0958 9.63404 15.3063 9.15323 14.8085L6.69817 12.355ZM4.92422 8.77467C7.34846 8.77202 9.30996 6.80946 9.31262 4.3884C9.31262 1.97 7.34262 0 4.92422 0C2.50581 0 0.535816 1.97 0.535816 4.3884C0.538472 6.81264 2.50316 8.77467 4.92422 8.77733V8.77467ZM4.92422 2.57354C5.92568 2.57354 6.73908 3.38693 6.73908 4.3884C6.73908 5.39306 5.92568 6.20379 4.92422 6.20698C3.92275 6.20433 3.10935 5.39306 3.1067 4.3884C3.10935 3.38693 3.92275 2.57354 4.92422 2.57088V2.57354Z" fill="#E0EEFB"/>
</svg>
