<svg width="18" height="17" viewBox="0 0 18 17" fill="none" xmlns="http://www.w3.org/2000/svg">
<path fill-rule="evenodd" clip-rule="evenodd" d="M8.99825 0.25C9.41246 0.25 9.74825 0.585786 9.74825 1V2.1261L13.9983 3.54276L16.2611 2.78849C16.654 2.6575 17.0788 2.86987 17.2098 3.26283C17.3407 3.65579 17.1284 4.08053 16.7354 4.21151L14.9469 4.80768L17.1977 11.56C17.3177 11.8662 17.2249 12.2266 16.949 12.4334C16.0978 13.0716 15.0626 13.4166 13.9987 13.4166C12.9348 13.4166 11.8996 13.0716 11.0484 12.4334C10.79 12.2397 10.6846 11.9025 10.7867 11.5962L13.0496 4.80768L9.74825 3.70724V15.25H11.4983C11.9125 15.25 12.2482 15.5858 12.2482 16C12.2482 16.4142 11.9125 16.75 11.4983 16.75H6.49825C6.08404 16.75 5.74825 16.4142 5.74825 16C5.74825 15.5858 6.08404 15.25 6.49825 15.25H8.24825V3.70724L4.94693 4.80768L7.19772 11.56C7.31768 11.8662 7.22486 12.2266 6.94898 12.4334C6.09776 13.0716 5.06255 13.4166 3.99867 13.4166C2.93478 13.4166 1.89958 13.0716 1.04836 12.4334C0.790025 12.2397 0.684637 11.9025 0.786738 11.5962L3.04957 4.80768L1.26108 4.21151C0.868122 4.08053 0.655752 3.65579 0.786738 3.26283C0.917724 2.86987 1.34246 2.6575 1.73542 2.78849L3.99825 3.54276L8.24825 2.1261V1C8.24825 0.585786 8.58404 0.25 8.99825 0.25ZM3.99825 6.70504L2.39436 11.5167C2.886 11.778 3.43657 11.9166 3.99867 11.9166C4.56049 11.9166 5.11081 11.7781 5.60227 11.5171L3.99825 6.70504ZM13.9983 6.70504L12.3944 11.5167C12.886 11.778 13.4366 11.9166 13.9987 11.9166C14.5605 11.9166 15.1108 11.7781 15.6023 11.5171L13.9983 6.70504Z" fill="#092C4F"/>
</svg>
