<svg width="12" height="11" viewBox="0 0 12 11" fill="none" xmlns="http://www.w3.org/2000/svg">
<path fill-rule="evenodd" clip-rule="evenodd" d="M0.814539 0.314551C1.07489 0.0542011 1.497 0.0542011 1.75735 0.314551L5.99999 4.55719L10.2426 0.314551C10.503 0.0542011 10.9251 0.0542007 11.1854 0.314551C11.4458 0.5749 11.4458 0.99701 11.1854 1.25736L6.9428 5.5L11.1854 9.74264C11.4458 10.003 11.4458 10.4251 11.1854 10.6854C10.9251 10.9458 10.503 10.9458 10.2426 10.6854L5.99999 6.44281L1.75735 10.6854C1.497 10.9458 1.07489 10.9458 0.814539 10.6854C0.554189 10.4251 0.554189 10.003 0.814539 9.74264L5.05718 5.5L0.814539 1.25736C0.554189 0.99701 0.554189 0.5749 0.814539 0.314551Z" fill="#C0C0C0"/>
</svg>
