<svg width="19" height="19" viewBox="0 0 19 19" fill="none" xmlns="http://www.w3.org/2000/svg">
<path fill-rule="evenodd" clip-rule="evenodd" d="M0.425489 0.425463C0.881101 -0.0301496 1.61979 -0.0301494 2.0754 0.425462L9.50003 7.85008L16.9246 0.425462C17.3803 -0.0301489 18.1189 -0.0301496 18.5746 0.425463C19.0302 0.881075 19.0302 1.61977 18.5746 2.07538L11.1499 9.5L18.5746 16.9246C19.0302 17.3802 19.0302 18.1189 18.5746 18.5745C18.1189 19.0301 17.3803 19.0301 16.9246 18.5745L9.50003 11.1499L2.0754 18.5745C1.61979 19.0301 0.881101 19.0301 0.425489 18.5745C-0.0301234 18.1189 -0.0301231 17.3802 0.425489 16.9246L7.85011 9.5L0.425489 2.07538C-0.0301231 1.61977 -0.0301234 0.881075 0.425489 0.425463Z" fill="#C0C0C0"/>
</svg>
