<svg width="15" height="15" viewBox="0 0 15 15" fill="none" xmlns="http://www.w3.org/2000/svg">
<g clip-path="url(#clip0_2094_23840)">
<path fill-rule="evenodd" clip-rule="evenodd" d="M7.49961 0.851562C3.82692 0.851562 0.849609 3.82887 0.849609 7.50156C0.849609 11.1743 3.82692 14.1516 7.49961 14.1516C11.1723 14.1516 14.1496 11.1743 14.1496 7.50156C14.1496 3.82887 11.1723 0.851562 7.49961 0.851562ZM1.75628 7.50156C1.75628 4.32961 4.32765 1.75823 7.49961 1.75823C10.6716 1.75823 13.2429 4.32961 13.2429 7.50156C13.2429 10.6735 10.6716 13.2449 7.49961 13.2449C4.32765 13.2449 1.75628 10.6735 1.75628 7.50156ZM5.65568 5.01216C5.47744 4.83392 5.18845 4.83392 5.01021 5.01216C4.83197 5.1904 4.83197 5.47939 5.01021 5.65763L6.85414 7.50156L5.01021 9.3455C4.83197 9.52374 4.83197 9.81272 5.01021 9.99096C5.18845 10.1692 5.47744 10.1692 5.65568 9.99096L7.49961 8.14703L9.34354 9.99096C9.52178 10.1692 9.81077 10.1692 9.98901 9.99096C10.1672 9.81272 10.1672 9.52374 9.98901 9.3455L8.14508 7.50156L9.98901 5.65763C10.1672 5.47939 10.1672 5.1904 9.98901 5.01216C9.81077 4.83392 9.52178 4.83392 9.34354 5.01216L7.49961 6.8561L5.65568 5.01216Z" fill="#F93232"/>
</g>
<defs>
<clipPath id="clip0_2094_23840">
<rect width="15" height="15" fill="white"/>
</clipPath>
</defs>
</svg>
