<svg width="15" height="13" viewBox="0 0 15 13" fill="none" xmlns="http://www.w3.org/2000/svg">
<path fill-rule="evenodd" clip-rule="evenodd" d="M4.06185 0.562928L6.56173 3.06281C6.73402 3.2351 6.73402 3.51444 6.56173 3.68673C6.38944 3.85902 6.1101 3.85902 5.93781 3.68673L4.19095 1.93986V12.1248C4.19095 12.3684 3.99343 12.5659 3.74977 12.5659C3.50612 12.5659 3.30859 12.3684 3.30859 12.1248V1.93986L1.56173 3.68673C1.38944 3.85902 1.1101 3.85902 0.937811 3.68673C0.765521 3.51444 0.765521 3.2351 0.937811 3.06281L3.43769 0.562928C3.43773 0.562889 3.43777 0.56285 3.43781 0.562811C3.43844 0.562188 3.43906 0.561566 3.43969 0.560946C3.48155 0.519573 3.52963 0.488281 3.5809 0.467069C3.63291 0.445499 3.68995 0.433594 3.74977 0.433594C3.86186 0.433594 3.97395 0.476044 4.05985 0.560946C4.06048 0.561565 4.06111 0.562187 4.06173 0.562811C4.06177 0.56285 4.06181 0.562889 4.06185 0.562928ZM11.2498 0.433594C11.4934 0.433594 11.6909 0.631115 11.6909 0.87477V11.0597L13.4378 9.31281C13.6101 9.14052 13.8894 9.14052 14.0617 9.31281C14.234 9.4851 14.234 9.76444 14.0617 9.93673L11.5617 12.4367C11.5194 12.479 11.4707 12.5109 11.4186 12.5325C11.3666 12.554 11.3096 12.5659 11.2498 12.5659C11.19 12.5659 11.1329 12.554 11.0809 12.5325C11.0289 12.5109 10.9801 12.479 10.9378 12.4367L8.43781 9.93673C8.26552 9.76444 8.26552 9.4851 8.43781 9.31281C8.6101 9.14052 8.88944 9.14052 9.06173 9.31281L10.8086 11.0597V0.87477C10.8086 0.631115 11.0061 0.433594 11.2498 0.433594Z" fill="#1D1D1D"/>
</svg>
