<svg width="20" height="15" viewBox="0 0 20 15" fill="none" xmlns="http://www.w3.org/2000/svg">
<path fill-rule="evenodd" clip-rule="evenodd" d="M2.20736 0.592339C2.32092 0.46965 2.48051 0.399902 2.64769 0.399902H6.09106C6.25823 0.399902 6.41783 0.46965 6.53139 0.592339L7.50106 1.63998H12.4456L13.3935 0.596468C13.5072 0.471281 13.6685 0.399902 13.8376 0.399902H17.3521C17.5193 0.399902 17.6789 0.46965 17.7924 0.592339L18.9402 1.83241C19.0429 1.94331 19.0999 2.08886 19.0999 2.23998V5.36574C19.0999 5.51685 19.0429 5.6624 18.9402 5.7733L17.7924 7.01338C17.6789 7.13606 17.5193 7.20581 17.3521 7.20581H13.8376C13.6685 7.20581 13.5072 7.13443 13.3935 7.00925L12.4456 5.96574H12.2132V7.30081L13.2013 8.36838C13.304 8.47928 13.361 8.62483 13.361 8.77594V12.9415C13.361 13.0926 13.304 13.2382 13.2013 13.3491L12.0535 14.5891C11.94 14.7118 11.7804 14.7816 11.6132 14.7816H8.38663C8.21946 14.7816 8.05986 14.7118 7.9463 14.5891L6.79851 13.3491C6.69587 13.2382 6.63884 13.0926 6.63884 12.9415V8.77594C6.63884 8.62483 6.69587 8.47928 6.79851 8.36838L7.78663 7.30081V5.96574H7.50106L6.53139 7.01338C6.41783 7.13606 6.25823 7.20581 6.09106 7.20581H2.64769C2.48051 7.20581 2.32092 7.13606 2.20736 7.01338L1.05957 5.7733C0.956923 5.6624 0.899902 5.51685 0.899902 5.36574V2.23998C0.899902 2.08886 0.956923 1.94331 1.05957 1.83241L2.20736 0.592339ZM2.90991 1.5999L2.0999 2.47503V5.13068L2.90991 6.00581H4.83594V1.5999H2.90991ZM6.03594 1.82365V5.78206L6.79851 4.95818C6.91207 4.83549 7.07167 4.76574 7.23884 4.76574H8.38663C8.718 4.76574 8.98663 5.03437 8.98663 5.36574V7.53587C8.98663 7.68698 8.92961 7.83253 8.82696 7.94343L7.83884 9.011V9.3215H12.161V9.011L11.1729 7.94343C11.0702 7.83253 11.0132 7.68698 11.0132 7.53587V5.36574C11.0132 5.03437 11.2818 4.76574 11.6132 4.76574H12.7112C12.8803 4.76574 13.0416 4.83712 13.1553 4.9623L13.9612 5.84947V1.75625L13.1553 2.64341C13.0416 2.7686 12.8803 2.83998 12.7112 2.83998H7.23884C7.07167 2.83998 6.91207 2.77023 6.79851 2.64754L6.03594 1.82365ZM15.1612 1.5999V6.00581H17.0899L17.8999 5.13068V2.47503L17.0899 1.5999H15.1612ZM12.161 10.5215H7.83884V12.7064L8.64885 13.5816H11.351L12.161 12.7064V10.5215Z" fill="#1976D2"/>
</svg>
