<svg width="14" height="20" viewBox="0 0 14 20" fill="none" xmlns="http://www.w3.org/2000/svg">
<path fill-rule="evenodd" clip-rule="evenodd" d="M0.334961 0.999961C0.334961 0.632692 0.632692 0.334961 0.999961 0.334961H13C13.3672 0.334961 13.665 0.632692 13.665 0.999961V19C13.665 19.3672 13.3672 19.665 13 19.665H0.999961C0.632692 19.665 0.334961 19.3672 0.334961 19V0.999961ZM1.66496 1.66496V18.335H12.335V1.66496H1.66496ZM4.33496 4.39159C4.33496 4.02432 4.63269 3.72659 4.99996 3.72659H8.99996C9.36723 3.72659 9.66496 4.02432 9.66496 4.39159C9.66496 4.75886 9.36723 5.05659 8.99996 5.05659H4.99996C4.63269 5.05659 4.33496 4.75886 4.33496 4.39159ZM3.2498 7.78705C3.2498 7.41978 3.54753 7.12205 3.9148 7.12205H7.55203C7.9193 7.12205 8.21703 7.41978 8.21703 7.78705V14.6325C8.21703 14.9998 7.9193 15.2975 7.55203 15.2975H3.9148C3.54753 15.2975 3.2498 14.9998 3.2498 14.6325V7.78705ZM4.5798 8.45205V13.9675H6.88703V8.45205H4.5798ZM9.42335 8.97836C9.42335 8.61109 9.72108 8.31336 10.0884 8.31336H10.1007C10.468 8.31336 10.7657 8.61109 10.7657 8.97836C10.7657 9.34563 10.468 9.64336 10.1007 9.64336H10.0884C9.72108 9.64336 9.42335 9.34563 9.42335 8.97836ZM9.42335 11.242C9.42335 10.8747 9.72108 10.577 10.0884 10.577H10.1007C10.468 10.577 10.7657 10.8747 10.7657 11.242C10.7657 11.6093 10.468 11.907 10.1007 11.907H10.0884C9.72108 11.907 9.42335 11.6093 9.42335 11.242ZM9.42335 13.5056C9.42335 13.1384 9.72108 12.8406 10.0884 12.8406H10.1007C10.468 12.8406 10.7657 13.1384 10.7657 13.5056C10.7657 13.8729 10.468 14.1706 10.1007 14.1706H10.0884C9.72108 14.1706 9.42335 13.8729 9.42335 13.5056Z" fill="#1976D2"/>
</svg>
