<svg width="18" height="17" viewBox="0 0 18 17" fill="none" xmlns="http://www.w3.org/2000/svg">
<path d="M17.6667 4.91634C17.6667 3.70077 17.1838 2.53498 16.3242 1.67544C15.4647 0.815893 14.2989 0.333008 13.0833 0.333008C11.8677 0.333008 10.702 0.815893 9.84242 1.67544C8.98287 2.53498 8.49999 3.70077 8.49999 4.91634C8.49999 6.13192 8.98287 7.29771 9.84242 8.15725C10.702 9.01679 11.8677 9.49967 13.0833 9.49967C14.2989 9.49967 15.4647 9.01679 16.3242 8.15725C17.1838 7.29771 17.6667 6.13192 17.6667 4.91634ZM13.5 5.33301L13.5008 7.41967C13.5008 7.53018 13.4569 7.63616 13.3788 7.7143C13.3006 7.79244 13.1947 7.83634 13.0842 7.83634C12.9736 7.83634 12.8677 7.79244 12.7895 7.7143C12.7114 7.63616 12.6675 7.53018 12.6675 7.41967V5.33301H10.58C10.4695 5.33301 10.3635 5.28911 10.2854 5.21097C10.2072 5.13283 10.1633 5.02685 10.1633 4.91634C10.1633 4.80583 10.2072 4.69985 10.2854 4.62171C10.3635 4.54357 10.4695 4.49967 10.58 4.49967H12.6667V2.41634C12.6667 2.30583 12.7106 2.19985 12.7887 2.12171C12.8668 2.04357 12.9728 1.99967 13.0833 1.99967C13.1938 1.99967 13.2998 2.04357 13.378 2.12171C13.4561 2.19985 13.5 2.30583 13.5 2.41634V4.49967H15.5808C15.6913 4.49967 15.7973 4.54357 15.8755 4.62171C15.9536 4.69985 15.9975 4.80583 15.9975 4.91634C15.9975 5.02685 15.9536 5.13283 15.8755 5.21097C15.7973 5.28911 15.6913 5.33301 15.5808 5.33301H13.5ZM15.5833 13.458V9.72301C16.0405 9.48442 16.4614 9.18194 16.8333 8.82467V13.458C16.8334 14.1498 16.5687 14.8154 16.0936 15.3182C15.6185 15.821 14.969 16.123 14.2783 16.1622L14.125 16.1663H2.87499C2.18321 16.1664 1.51763 15.9017 1.0148 15.4266C0.511962 14.9515 0.209989 14.302 0.170823 13.6113L0.166656 13.458V5.54134C0.166611 4.84956 0.431285 4.18398 0.906383 3.68115C1.38148 3.17831 2.03098 2.87634 2.72166 2.83717L2.87499 2.83301H8.08166C7.91436 3.23393 7.79627 3.65366 7.72999 4.08301H2.87499C2.509 4.08302 2.15639 4.22065 1.88716 4.46857C1.61794 4.7165 1.45177 5.05659 1.42166 5.42134L1.41666 5.54134V5.89884L8.49999 9.62634L9.58749 9.05384C9.95332 9.36301 10.36 9.62467 10.7992 9.82884L8.79082 10.8863C8.71419 10.9266 8.63002 10.9505 8.54366 10.9565C8.28916 11.3002 8.37064 10.9506 8.28916 10.9213L8.20916 10.8863L1.41666 7.31134V13.458C1.41667 13.824 1.5543 14.1766 1.80222 14.4458C2.05015 14.7151 2.39024 14.8812 2.75499 14.9113L2.87499 14.9163H14.125C14.4911 14.9163 14.8438 14.7786 15.1131 14.5305C15.3823 14.2824 15.5484 13.9421 15.5783 13.5772L15.5833 13.458Z" fill="#1976D2"/>
</svg>
