<svg width="18" height="12" viewBox="0 0 18 12" fill="none" xmlns="http://www.w3.org/2000/svg">
<path fill-rule="evenodd" clip-rule="evenodd" d="M0.170044 0.999998C0.170044 0.541602 0.541648 0.169998 1.00004 0.169998H17C17.4584 0.169998 17.83 0.541602 17.83 0.999998C17.83 1.45839 17.4584 1.83 17 1.83H1.00004C0.541648 1.83 0.170044 1.45839 0.170044 0.999998ZM0.170044 6C0.170044 5.5416 0.541648 5.17 1.00004 5.17H17C17.4584 5.17 17.83 5.5416 17.83 6C17.83 6.45839 17.4584 6.83 17 6.83H1.00004C0.541648 6.83 0.170044 6.45839 0.170044 6ZM0.170044 11C0.170044 10.5416 0.541648 10.17 1.00004 10.17H11.6667C12.1251 10.17 12.4967 10.5416 12.4967 11C12.4967 11.4584 12.1251 11.83 11.6667 11.83H1.00004C0.541648 11.83 0.170044 11.4584 0.170044 11Z" fill="#092C4F"/>
</svg>
