<svg width="20" height="18" viewBox="0 0 20 18" fill="none" xmlns="http://www.w3.org/2000/svg">
<path fill-rule="evenodd" clip-rule="evenodd" d="M6.8191 1.7181C6.40362 1.78181 6.09125 1.89663 5.96185 2.02156C5.41875 2.54589 4.31013 3.74933 3.32084 4.84096C2.8299 5.3827 2.37388 5.89074 2.04054 6.26341C1.9898 6.32014 1.9419 6.37372 1.89717 6.4238L3.49996 8.16476L4.51072 7.06687C4.69629 6.86531 4.98648 6.79818 5.24171 6.89778C5.49693 6.99737 5.66496 7.24331 5.66496 7.51728V16.085H14.335V7.51728C14.335 7.24331 14.503 6.99737 14.7582 6.89778C15.0134 6.79818 15.3036 6.86531 15.4892 7.06687L16.5 8.16476L18.1028 6.42379C18.058 6.37371 18.0101 6.32012 17.9594 6.26338C17.626 5.89069 17.17 5.38264 16.6791 4.84089C15.6898 3.74923 14.5812 2.54582 14.0381 2.0216C13.9087 1.89665 13.5963 1.78183 13.1808 1.71812C13.0328 1.69543 12.8935 1.68228 12.7793 1.67475C12.5707 1.89235 12.2654 2.19322 11.9122 2.47229C11.4393 2.84582 10.7422 3.29435 9.99996 3.29435C9.35178 3.29435 8.71496 2.97847 8.21963 2.63028C7.82673 2.3541 7.46376 2.01601 7.18135 1.67748C7.0751 1.68533 6.9505 1.69796 6.8191 1.7181ZM7.49996 1.00004L7.50889 0.335097C7.72422 0.337989 7.92483 0.444977 8.04719 0.622191C8.24875 0.914103 8.59245 1.26664 8.98447 1.54221C9.39054 1.82764 9.75371 1.96435 9.99996 1.96435C10.2578 1.96435 10.6439 1.77925 11.0877 1.42865C11.501 1.10221 11.8451 0.72952 12.0107 0.549627C12.1345 0.415135 12.3083 0.337545 12.4911 0.335097L12.5 1.00004C12.4911 0.335097 12.4909 0.335099 12.4911 0.335097L12.4924 0.335081L12.4942 0.335061L12.4994 0.335016L12.5159 0.334962C12.5295 0.334959 12.5483 0.33505 12.5717 0.335389C12.6184 0.336066 12.6838 0.337737 12.7633 0.34166C12.9215 0.349458 13.1405 0.366393 13.3824 0.403489C13.8214 0.470804 14.5089 0.627539 14.9618 1.06469C15.5437 1.62642 16.6851 2.86697 17.6646 3.94779C18.158 4.49228 18.6161 5.00259 18.9507 5.37671C19.118 5.5638 19.2546 5.71691 19.3493 5.82329L19.4966 5.98886C19.7233 6.24416 19.7204 6.63033 19.4892 6.88148L16.9892 9.597C16.8633 9.73377 16.6859 9.81159 16.5 9.81159C16.3141 9.81159 16.1366 9.73377 16.0107 9.597L15.665 9.22143V16.75C15.665 17.1173 15.3672 17.415 15 17.415H4.99996C4.63269 17.415 4.33496 17.1173 4.33496 16.75V9.22143L3.9892 9.597C3.86328 9.73377 3.68587 9.81159 3.49996 9.81159C3.31406 9.81159 3.13664 9.73377 3.01072 9.597L0.510722 6.88148C0.2795 6.63033 0.276012 6.24489 0.50265 5.98959L0.650597 5.82329C0.745349 5.71691 0.881891 5.56381 1.04923 5.37673C1.38386 5.00262 1.8419 4.49233 2.33533 3.94785C3.3148 2.86704 4.45617 1.62652 5.03807 1.06472C5.49093 0.627513 6.17856 0.470779 6.61752 0.40347C6.85942 0.366377 7.07846 0.349447 7.23661 0.341653C7.31618 0.337731 7.38159 0.336063 7.42828 0.335387C7.45166 0.335049 7.47043 0.334958 7.48403 0.334961L7.50052 0.335016L7.50574 0.335061L7.50758 0.335081L7.50889 0.335097C7.50903 0.335099 7.50889 0.335097 7.49996 1.00004Z" fill="#1976D2"/>
</svg>
