<svg width="19" height="16" viewBox="0 0 19 16" fill="none" xmlns="http://www.w3.org/2000/svg">
<path fill-rule="evenodd" clip-rule="evenodd" d="M14.6223 15.3344C14.8638 15.5054 15.175 15.5481 15.4525 15.4431C15.7301 15.3374 15.9341 15.1004 15.9956 14.8131C16.6473 11.7501 18.2283 3.99736 18.8216 1.21111C18.8666 1.00111 18.7916 0.782862 18.6266 0.642611C18.4616 0.502361 18.2328 0.461861 18.0288 0.537611C14.8841 1.70161 5.19929 5.33537 1.24078 6.80012C0.989533 6.89312 0.826033 7.13462 0.834283 7.39937C0.843283 7.66487 1.02178 7.89512 1.27903 7.97237C3.05429 8.50337 5.38454 9.24212 5.38454 9.24212C5.38454 9.24212 6.47354 12.5309 7.04129 14.2034C7.11254 14.4134 7.27679 14.5784 7.49354 14.6354C7.70954 14.6916 7.94054 14.6324 8.10179 14.4801C9.01379 13.6191 10.4238 12.2879 10.4238 12.2879C10.4238 12.2879 13.1028 14.2521 14.6223 15.3344ZM6.36479 8.82662L7.62404 12.9801L7.90379 10.3499C7.90379 10.3499 12.769 5.96162 15.5426 3.46036C15.6236 3.38686 15.6348 3.26386 15.5673 3.17761C15.5006 3.09136 15.3776 3.07111 15.2853 3.12961C12.0708 5.18237 6.36479 8.82662 6.36479 8.82662Z" fill="#E0EEFB"/>
</svg>
