<svg width="16" height="17" viewBox="0 0 16 17" fill="none" xmlns="http://www.w3.org/2000/svg">
<path d="M11.6395 0.664062C11.5258 0.664218 11.4144 0.696007 11.3177 0.755872C11.2211 0.815737 11.143 0.901316 11.0922 1.00303L10.2754 2.63663C10.2303 2.72673 10.2081 2.82658 10.2108 2.92731C10.2135 3.02804 10.2411 3.12655 10.2909 3.2141L11.0269 4.50301V8.83203H10.4143C10.2518 8.83203 10.096 8.89657 9.98111 9.01146C9.86622 9.12634 9.80168 9.28216 9.80168 9.44463V14.1412C9.80168 14.8994 10.1029 15.6266 10.639 16.1627C11.1751 16.6988 11.9023 17 12.6605 17C13.4187 17 14.1458 16.6988 14.6819 16.1627C15.2181 15.6266 15.5193 14.8994 15.5193 14.1412V9.44463C15.5193 9.28216 15.4547 9.12634 15.3398 9.01146C15.225 8.89657 15.0691 8.83203 14.9067 8.83203H14.2941V4.50301L15.03 3.2141C15.08 3.12662 15.1077 3.02814 15.1105 2.92741C15.1134 2.82668 15.0913 2.7268 15.0463 2.63663L14.2295 1.00303C14.1787 0.901192 14.1005 0.815531 14.0037 0.755657C13.9069 0.695784 13.7953 0.664066 13.6815 0.664062H11.6395ZM13.0689 8.83203H12.2521V4.33965C12.252 4.23306 12.2241 4.12832 12.1712 4.0358L11.5178 2.89065L12.0185 1.88926H13.3033L13.804 2.89065L13.1497 4.0358C13.0968 4.12832 13.0689 4.23306 13.0689 4.33965V8.83203ZM11.0269 14.1412V12.0992H14.2941V14.1412C14.2941 14.5745 14.122 14.99 13.8156 15.2963C13.5092 15.6027 13.0937 15.7748 12.6605 15.7748C12.2272 15.7748 11.8117 15.6027 11.5053 15.2963C11.199 14.99 11.0269 14.5745 11.0269 14.1412ZM14.2941 10.874H11.0269V10.0572H14.2941V10.874ZM6.14733 0.775147C6.05445 0.738385 5.95398 0.724897 5.85469 0.735856C5.75539 0.746816 5.66029 0.781892 5.57766 0.838027C5.49502 0.894162 5.42737 0.969653 5.3806 1.05792C5.33383 1.14619 5.30935 1.24456 5.3093 1.34445V4.33965C5.3093 4.55628 5.22324 4.76403 5.07006 4.91721C4.91689 5.07039 4.70913 5.15645 4.4925 5.15645C4.27587 5.15645 4.06812 5.07039 3.91494 4.91721C3.76176 4.76403 3.67571 4.55628 3.67571 4.33965V1.34445C3.67571 1.24446 3.65123 1.14598 3.60442 1.05762C3.5576 0.969258 3.48986 0.893702 3.40712 0.837547C3.32438 0.781392 3.22915 0.746346 3.12974 0.735469C3.03034 0.724592 2.92978 0.738214 2.83685 0.775147C2.03614 1.09279 1.3436 1.63387 0.841678 2.33396C0.33976 3.03404 0.0496231 3.86362 0.00581627 4.72393C-0.0379906 5.58423 0.166379 6.43899 0.594588 7.18644C1.0228 7.93388 1.6568 8.54251 2.42111 8.93985V14.9286C2.42111 15.478 2.63934 16.0048 3.0278 16.3933C3.41627 16.7818 3.94313 17 4.4925 17C5.04187 17 5.56874 16.7818 5.9572 16.3933C6.34566 16.0048 6.5639 15.478 6.5639 14.9286V8.93985C7.32818 8.54244 7.96213 7.93375 8.39027 7.18625C8.81842 6.43876 9.02271 5.58397 8.97881 4.72366C8.93492 3.86336 8.64469 3.03379 8.1427 2.33375C7.6407 1.63372 6.94809 1.09271 6.14733 0.775147ZM6.53449 4.33965V2.40139C6.97925 2.75771 7.32312 3.22411 7.532 3.75433C7.74088 4.28455 7.80752 4.86017 7.72529 5.42409C7.64307 5.98802 7.41485 6.52064 7.06326 6.96915C6.71168 7.41765 6.24894 7.76644 5.72096 7.98093C5.60799 8.02677 5.51127 8.10528 5.44317 8.20641C5.37507 8.30754 5.3387 8.42668 5.3387 8.5486V14.9286C5.3387 15.153 5.24955 15.3683 5.09086 15.527C4.93216 15.6857 4.71693 15.7748 4.4925 15.7748C4.26808 15.7748 4.05284 15.6857 3.89415 15.527C3.73545 15.3683 3.6463 15.153 3.6463 14.9286V8.5486C3.64631 8.42668 3.60993 8.30754 3.54183 8.20641C3.47374 8.10528 3.37701 8.02677 3.26404 7.98093C2.73623 7.76637 2.27367 7.41759 1.92221 6.96916C1.57076 6.52073 1.34261 5.98822 1.2604 5.42444C1.17818 4.86065 1.24475 4.28517 1.45351 3.75504C1.66226 3.22491 2.00596 2.75856 2.45051 2.40221V4.33965C2.45051 4.88122 2.66565 5.40061 3.0486 5.78356C3.43154 6.1665 3.95093 6.38164 4.4925 6.38164C5.03407 6.38164 5.55346 6.1665 5.93641 5.78356C6.31936 5.40061 6.53449 4.88122 6.53449 4.33965Z" fill="#1976D2"/>
</svg>
