<svg width="20" height="12" viewBox="0 0 20 12" fill="none" xmlns="http://www.w3.org/2000/svg">
<path fill-rule="evenodd" clip-rule="evenodd" d="M19.5417 0.954062C19.68 0.499062 19.5417 0.164062 18.8792 0.164062H16.6917C16.135 0.164062 15.8783 0.453229 15.7392 0.772396C15.7392 0.772396 14.6267 3.43573 13.0508 5.16573C12.5408 5.6674 12.3092 5.82656 12.0308 5.82656C11.8917 5.82656 11.6825 5.6674 11.6825 5.21156V0.954062C11.6825 0.407396 11.5292 0.164062 11.0658 0.164062H7.62583C7.27833 0.164062 7.06917 0.417396 7.06917 0.658229C7.06917 1.17573 7.8575 1.29573 7.93833 2.7524V5.9174C7.93833 6.61156 7.81083 6.7374 7.5325 6.7374C6.79083 6.7374 4.98667 4.06156 3.91583 0.999896C3.70833 0.404062 3.49833 0.164062 2.93917 0.164062H0.75C0.125 0.164062 0 0.453229 0 0.772396C0 1.34073 0.741667 4.16406 3.45417 7.89823C5.2625 10.4482 7.80833 11.8307 10.1275 11.8307C11.5183 11.8307 11.69 11.5241 11.69 10.9949V9.0674C11.69 8.45323 11.8217 8.33073 12.2625 8.33073C12.5875 8.33073 13.1433 8.49073 14.4417 9.71989C15.925 11.1774 16.1692 11.8307 17.0042 11.8307H19.1917C19.8167 11.8307 20.13 11.5241 19.95 10.9174C19.7517 10.3141 19.0433 9.43823 18.1042 8.39906C17.5942 7.8074 16.8292 7.1699 16.5967 6.85073C16.2725 6.44156 16.365 6.25906 16.5967 5.8949C16.5967 5.8949 19.2633 2.20656 19.5408 0.954062H19.5417Z" fill="#E0EEFB"/>
</svg>
