<svg width="20" height="14" viewBox="0 0 20 14" fill="none" xmlns="http://www.w3.org/2000/svg">
<path d="M19.5838 2.42533C19.4706 2.02136 19.25 1.65562 18.9455 1.367C18.6324 1.0695 18.2487 0.856693 17.8305 0.748664C16.2655 0.336164 9.99551 0.336164 9.99551 0.336164C7.38162 0.306424 4.76837 0.437226 2.17051 0.72783C1.75234 0.843841 1.36932 1.0614 1.05551 1.36116C0.747181 1.65783 0.523848 2.02366 0.407181 2.4245C0.126925 3.93428 -0.00924233 5.46728 0.000514319 7.00283C-0.00948568 8.537 0.126348 10.0695 0.407181 11.5812C0.521348 11.9803 0.743848 12.3445 1.05301 12.6387C1.36218 12.9328 1.74718 13.1453 2.17051 13.2578C3.75635 13.6695 9.99551 13.6695 9.99551 13.6695C12.6127 13.6993 15.2293 13.5685 17.8305 13.2778C18.2487 13.1698 18.6324 12.957 18.9455 12.6595C19.2499 12.3709 19.4702 12.0051 19.583 11.6012C19.8706 10.092 20.0104 8.55832 20.0005 7.022C20.0221 5.47917 19.8825 3.9383 19.5838 2.4245V2.42533ZM8.00218 9.85616V4.15033L13.2188 7.00366L8.00218 9.85616Z" fill="#E0EEFB"/>
</svg>
