<svg width="42" height="44" viewBox="0 0 42 44" fill="none" xmlns="http://www.w3.org/2000/svg">
<path fill-rule="evenodd" clip-rule="evenodd" d="M18.9166 3.5105C16.3278 3.5105 14.2291 5.60916 14.2291 8.198V10.2813C14.2291 11.1443 13.5296 11.8438 12.6666 11.8438C11.8037 11.8438 11.1041 11.1443 11.1041 10.2813V8.198C11.1041 3.88327 14.6019 0.385498 18.9166 0.385498H23.0833C27.398 0.385498 30.8958 3.88327 30.8958 8.198V10.2813C30.8958 11.1443 30.1962 11.8438 29.3333 11.8438C28.4703 11.8438 27.7708 11.1443 27.7708 10.2813V8.198C27.7708 5.60916 25.6721 3.5105 23.0833 3.5105H18.9166Z" fill="#1D1D1D"/>
<path d="M8.49996 10.2813H33.5C38.1023 10.2813 41.8333 14.0123 41.8333 18.6147C41.8333 18.6147 36.8791 23.4629 24.3036 23.9352C24.1976 23.9392 24.105 23.8593 24.089 23.7545C23.86 22.2542 22.5642 21.1049 21 21.1049C19.48 21.1049 18.2135 22.1901 17.9329 23.6279C17.9127 23.7316 17.8174 23.8075 17.7121 23.7998C5.11255 22.874 0.166626 18.6147 0.166626 18.6147C0.166626 14.0123 3.89759 10.2813 8.49996 10.2813Z" fill="#1D1D1D"/>
<path d="M17.875 26.5028C17.875 26.3978 17.7917 26.3105 17.687 26.3029C7.79018 25.5819 2.26615 22.9849 0.166626 21.7659V35.2814C0.166626 39.8837 3.89759 43.6147 8.49996 43.6147H33.5C38.1023 43.6147 41.8333 39.8837 41.8333 35.2814V21.8529C39.7286 23.2321 34.1899 26.1256 24.3198 26.5181C24.2122 26.5223 24.125 26.6107 24.125 26.7183V27.1466C24.125 28.8725 22.7259 30.2716 21 30.2716C19.2741 30.2716 17.875 28.8725 17.875 27.1466V26.5028Z" fill="#1D1D1D"/>
<path d="M19.4375 24.2813C19.4375 23.4529 20.109 22.7813 20.9375 22.7813H21.0625C21.8909 22.7813 22.5625 23.4529 22.5625 24.2813V27.1022C22.5625 27.9306 21.8909 28.6022 21.0625 28.6022H20.9375C20.109 28.6022 19.4375 27.9306 19.4375 27.1022V24.2813Z" fill="#1D1D1D"/>
</svg>
