<svg width="34" height="41" viewBox="0 0 34 41" fill="none" xmlns="http://www.w3.org/2000/svg">
<path d="M19.9327 1.24686C18.2428 -0.193287 15.7572 -0.193288 14.0673 1.24685L12.5771 2.5168C11.8529 3.13394 10.9525 3.50689 10.0041 3.58258L8.05237 3.73833C5.83908 3.91495 4.08155 5.67248 3.90493 7.88577L3.74918 9.8375C3.67349 10.7859 3.30053 11.6863 2.6834 12.4105L1.41345 13.9007C-0.0266913 15.5907 -0.0266927 18.0762 1.41345 19.7661L2.6834 21.2563C3.30053 21.9805 3.67349 22.8809 3.74918 23.8293L3.90493 25.7811C4.08155 27.9943 5.83908 29.7519 8.05237 29.9285L10.0041 30.0842C10.9525 30.1599 11.8529 30.5329 12.5771 31.15L14.0673 32.42C15.7572 33.8601 18.2428 33.8601 19.9327 32.42L21.4229 31.15C22.1471 30.5329 23.0475 30.1599 23.9959 30.0842L25.9476 29.9285C28.1609 29.7519 29.9185 27.9943 30.0951 25.7811L30.2508 23.8293C30.3265 22.8809 30.6995 21.9805 31.3166 21.2563L32.5866 19.7661C34.0267 18.0762 34.0267 15.5907 32.5866 13.9007L31.3166 12.4105C30.6995 11.6863 30.3265 10.7859 30.2508 9.8375L30.0951 7.88578C29.9185 5.67249 28.1609 3.91495 25.9477 3.73833L23.9959 3.58258C23.0475 3.50689 22.1471 3.13394 21.4229 2.5168L19.9327 1.24686Z" fill="#E0EEFB"/>
<path d="M6.58334 38.7586V32.849C6.97882 32.9462 7.38651 33.0127 7.80379 33.046L9.75551 33.2017C10.0484 33.2251 10.3265 33.3403 10.5502 33.5309L12.0404 34.8008C14.8983 37.2363 19.1017 37.2363 21.9596 34.8008L23.4498 33.5309C23.6735 33.3403 23.9516 33.2251 24.2445 33.2017L26.1962 33.046C26.6135 33.0127 27.0212 32.9462 27.4167 32.849V38.7586C27.4167 40.2325 25.9281 41.2404 24.5596 40.693L17.7737 37.9786C17.2771 37.7799 16.723 37.7799 16.2263 37.9786L9.44041 40.693C8.07194 41.2404 6.58334 40.2325 6.58334 38.7586Z" fill="#E0EEFB"/>
</svg>
