<svg width="178" height="35" viewBox="0 0 178 35" fill="none" xmlns="http://www.w3.org/2000/svg">
<g clip-path="url(#clip0_971_13336)">
<path fill-rule="evenodd" clip-rule="evenodd" d="M29.3332 8.33505C29.3332 6.34797 27.6517 4.8125 25.69 4.8125C23.635 4.8125 22.0469 6.43831 22.0469 8.33505V11.8576H25.69C27.6517 11.8576 29.3332 10.3221 29.3332 8.33505Z" fill="#FDFDFD"/>
<path d="M28.5832 8.33495C28.5832 7.52206 28.2095 6.79947 27.7424 6.34789C27.1819 5.80596 26.4347 5.53499 25.6873 5.53499C24.8466 5.53499 24.0993 5.89628 23.6322 6.34789C23.0717 6.88983 22.7915 7.61242 22.7915 8.33495V11.1349H25.6873C26.528 11.1349 27.2754 10.7736 27.7424 10.3221C28.2095 9.87043 28.5832 9.14784 28.5832 8.33495ZM28.77 5.35435C29.5173 6.07692 30.0777 7.16079 30.0777 8.33495C30.0777 9.50917 29.6107 10.593 28.77 11.3156C28.0227 12.0381 26.9017 12.5801 25.6873 12.5801H22.0442H21.2969V11.8575V8.33495C21.2969 7.16079 21.7639 6.07692 22.6047 5.35435C23.352 4.63178 24.473 4.08984 25.6873 4.08984C26.8083 4.08984 27.9293 4.63178 28.77 5.35435Z" fill="#1D1D1D"/>
<path fill-rule="evenodd" clip-rule="evenodd" d="M8.03375 4.8125C5.97866 4.8125 4.39062 6.43831 4.39062 8.33505C4.39062 10.3221 6.07207 11.8576 8.03375 11.8576H11.6769V8.33505C11.6769 6.43831 10.0888 4.8125 8.03375 4.8125Z" fill="#FDFDFD"/>
<path d="M8.03107 5.53499C7.19033 5.53499 6.44305 5.89628 5.97597 6.34789C5.41549 6.88983 5.13525 7.61242 5.13525 8.33495C5.13525 9.14784 5.5089 9.87043 5.97597 10.3221C6.53644 10.864 7.28378 11.1349 8.03107 11.1349H10.9269V8.33495C10.9269 7.52206 10.5533 6.79947 10.0861 6.34789C9.61908 5.80596 8.8718 5.53499 8.03107 5.53499ZM4.94842 5.35435C5.69572 4.63178 6.81666 4.08984 8.03107 4.08984C9.24547 4.08984 10.3664 4.54145 11.1137 5.35435C11.8611 6.07692 12.4215 7.16079 12.4215 8.33495V11.8575V12.5801H11.6742H8.03107C6.81666 12.5801 5.69572 12.1285 4.94842 11.3156C4.20111 10.593 3.64062 9.50917 3.64062 8.33495C3.64062 7.16079 4.20111 6.16725 4.94842 5.35435Z" fill="#1D1D1D"/>
<path fill-rule="evenodd" clip-rule="evenodd" d="M19.4309 2.37549C18.0296 1.02067 15.6942 1.02067 14.2931 2.37549C12.8919 3.73032 12.8919 5.98837 14.2931 7.34319L16.9087 9.87223L19.5242 7.34319C20.832 5.98837 20.832 3.73032 19.4309 2.37549Z" fill="#FDFDFD"/>
<path d="M18.9608 2.82835C18.4003 2.28643 17.653 2.01546 16.9057 2.01546C16.1584 2.01546 15.4111 2.28643 14.8506 2.82835C14.2901 3.37029 14.0099 4.09286 14.0099 4.81543C14.0099 5.53801 14.2901 6.26058 14.8506 6.80249L16.9057 8.7896L18.9608 6.80249C19.5213 6.26058 19.8016 5.53801 19.8016 4.81543C19.8016 4.09286 19.5213 3.37029 18.9608 2.82835ZM19.895 1.83482C20.8291 2.64771 21.2027 3.73157 21.2027 4.81543C21.2027 5.89929 20.7357 6.98315 19.895 7.79604L17.2794 10.3251L16.8123 10.7766L16.3452 10.3251L13.7297 7.79604C12.8889 6.98315 12.4219 5.89929 12.4219 4.81543C12.4219 3.73157 12.8889 2.64771 13.7297 1.83482C14.5704 1.02192 15.6914 0.570312 16.8123 0.570312C17.9333 0.570312 19.0542 1.02192 19.895 1.83482Z" fill="#1D1D1D"/>
<path d="M11.2102 12.3999C10.9299 12.1289 10.9299 11.6773 11.2102 11.4063C11.4904 11.1354 11.9575 11.1354 12.2377 11.4063L17.3755 16.3741C17.6557 16.645 17.6557 17.0966 17.3755 17.3676C17.0953 17.6386 16.6282 17.6386 16.3479 17.3676L11.2102 12.3999Z" fill="#1D1D1D"/>
<path d="M21.3951 11.4962C21.6753 11.2252 22.1425 11.2252 22.4227 11.4962C22.7029 11.7672 22.7029 12.2188 22.4227 12.4897L17.3784 17.3671C17.0981 17.6381 16.631 17.6381 16.3508 17.3671C16.0706 17.0961 16.0706 16.6446 16.3508 16.3736L21.3951 11.4962Z" fill="#1D1D1D"/>
<path fill-rule="evenodd" clip-rule="evenodd" d="M31.8549 19.3549C33.2561 18 33.2561 15.742 31.8549 14.3872C30.4537 13.0324 28.1184 13.0324 26.7171 14.3872L24.1016 16.9162L26.7171 19.4452C28.1184 20.7097 30.4537 20.7097 31.8549 19.3549Z" fill="#FDFDFD"/>
<path d="M31.3884 18.9041C31.9488 18.3622 32.2291 17.6396 32.2291 16.917C32.2291 16.1944 31.9488 15.4719 31.3884 14.9299C30.8279 14.388 30.0806 14.1171 29.3333 14.1171C28.586 14.1171 27.8386 14.388 27.2782 14.9299L25.223 16.917L27.2782 18.9041C27.8386 19.446 28.586 19.717 29.3333 19.717C30.0806 19.717 30.8279 19.446 31.3884 18.9041ZM32.4159 19.8073C31.5752 20.6202 30.4542 21.0718 29.3333 21.0718C28.2123 21.0718 27.0913 20.6202 26.2506 19.8073L23.635 17.3686L23.168 16.917L23.635 16.4654L26.2506 13.9364C27.0913 13.1235 28.2123 12.6719 29.3333 12.6719C30.4542 12.6719 31.5752 13.1235 32.4159 13.9364C33.2566 14.7493 33.7237 15.8331 33.7237 16.917C33.6303 17.9105 33.2566 18.9944 32.4159 19.8073Z" fill="#1D1D1D"/>
<path fill-rule="evenodd" clip-rule="evenodd" d="M25.6898 28.9279C27.7449 28.9279 29.333 27.3021 29.333 25.4053C29.333 23.4182 27.6515 21.8828 25.6898 21.8828H22.0467V25.4053C21.9532 27.3021 23.6347 28.9279 25.6898 28.9279Z" fill="#FDFDFD"/>
<path d="M25.6873 28.2091C26.528 28.2091 27.2754 27.8479 27.7424 27.3962C28.3029 26.8543 28.5832 26.1318 28.5832 25.4092C28.5832 24.5963 28.2095 23.8737 27.7424 23.4221C27.1819 22.8802 26.4347 22.5189 25.6873 22.5189H22.6981V25.3189C22.6981 26.1318 23.0717 26.8543 23.5388 27.3059C24.0993 27.8479 24.8466 28.2091 25.6873 28.2091ZM28.77 28.3898C28.0227 29.1124 26.9017 29.6543 25.6873 29.6543C24.473 29.6543 23.352 29.2027 22.6047 28.3898C21.8574 27.6672 21.2969 26.5833 21.2969 25.4092V21.8867V21.1641H22.0442H25.6873C26.9017 21.1641 28.0227 21.6157 28.77 22.4286C29.5173 23.1512 30.0777 24.235 30.0777 25.4092C29.9844 26.493 29.5173 27.5769 28.77 28.3898Z" fill="#1D1D1D"/>
<path fill-rule="evenodd" clip-rule="evenodd" d="M14.2928 33.1725C15.6941 34.5273 18.0294 34.5273 19.4306 33.1725C20.8318 31.8176 20.8318 29.5596 19.4306 28.2048L16.815 25.6758L14.2928 28.1145C12.7982 29.4693 12.7982 31.7273 14.2928 33.1725Z" fill="#45C4FF"/>
<path d="M14.7572 32.6319C15.3177 33.1738 16.065 33.4448 16.8123 33.4448C17.5596 33.4448 18.3069 33.1738 18.8674 32.6319C19.4279 32.09 19.7081 31.3674 19.7081 30.6448C19.7081 29.9222 19.4279 29.1997 18.8674 28.6577L16.8123 26.6706L14.7572 28.6577C14.1967 29.1997 13.9165 29.9222 13.9165 30.6448C13.9165 31.3674 14.1967 32.09 14.7572 32.6319ZM13.7297 33.6254C12.8889 32.8125 12.4219 31.7286 12.4219 30.6448C12.4219 29.5609 12.8889 28.4771 13.7297 27.6642L16.3452 25.1352L16.8123 24.6836L17.2794 25.1352L19.895 27.6642C20.7357 28.4771 21.2027 29.5609 21.2027 30.6448C21.2027 31.7286 20.7357 32.8125 19.895 33.6254C19.0542 34.4383 17.9333 34.8899 16.8123 34.8899C15.6914 34.8899 14.5704 34.4383 13.7297 33.6254Z" fill="#1D1D1D"/>
<path fill-rule="evenodd" clip-rule="evenodd" d="M4.39062 25.409C4.39062 27.396 6.07207 28.9315 8.03375 28.9315C10.0888 28.9315 11.6769 27.3057 11.6769 25.409V21.8864H8.03375C6.07207 21.7961 4.39062 23.4219 4.39062 25.409Z" fill="#FDFDFD"/>
<path d="M5.13525 25.4092C5.13525 26.2221 5.5089 26.9447 5.97597 27.3962C6.53644 27.9382 7.28378 28.2091 8.03107 28.2091C8.8718 28.2091 9.61908 27.8479 10.0861 27.3962C10.6466 26.8543 10.9269 26.1318 10.9269 25.4092V22.5189H8.03107C7.19033 22.5189 6.44305 22.8801 5.97597 23.3318C5.41549 23.8737 5.13525 24.5963 5.13525 25.4092ZM4.94842 28.3898C4.20111 27.6672 3.64062 26.5833 3.64062 25.4092C3.64062 24.235 4.1077 23.1512 4.94842 22.4286C5.69572 21.706 6.81666 21.1641 8.03107 21.1641H11.6742H12.4215V21.8867V25.4092C12.4215 26.5833 11.9544 27.6672 11.1137 28.3898C10.3664 29.1124 9.24547 29.6543 8.03107 29.6543C6.81666 29.564 5.78914 29.1124 4.94842 28.3898Z" fill="#1D1D1D"/>
<path fill-rule="evenodd" clip-rule="evenodd" d="M1.86731 14.3886C0.466105 15.7434 0.466105 18.0014 1.86731 19.3562C3.26852 20.7111 5.60387 20.7111 7.00506 19.3562L9.62064 16.8272L7.00506 14.3886C5.60387 12.9434 3.26852 12.9434 1.86731 14.3886Z" fill="#FDFDFD"/>
<path d="M2.33535 14.8362C1.77486 15.3781 1.49462 16.1007 1.49462 16.8232C1.49462 17.5458 1.77486 18.2684 2.33535 18.8104C2.89582 19.3523 3.64314 19.6232 4.39045 19.6232C5.13776 19.6232 5.88507 19.3523 6.44557 18.8104L8.50064 16.8232L6.44557 14.8362C5.88507 14.2943 5.13776 14.0233 4.39045 14.0233C3.64314 14.0233 2.89582 14.2943 2.33535 14.8362ZM1.30779 13.8426C2.14852 13.0298 3.26948 12.5781 4.39045 12.5781C5.51141 12.5781 6.63241 13.0298 7.47307 13.8426L10.0887 16.3717L10.5558 16.8232L10.0887 17.2749L7.47307 19.8038C6.63241 20.6168 5.51141 21.0684 4.39045 21.0684C3.26948 21.0684 2.14852 20.7071 1.30779 19.8038C0.467069 18.991 0 17.9071 0 16.8232C0 15.7394 0.467069 14.6555 1.30779 13.8426Z" fill="#1D1D1D"/>
<path d="M9.52853 17.5467C9.15486 17.5467 8.78125 17.2757 8.78125 16.8242C8.78125 16.4628 9.06147 16.1016 9.52853 16.1016H16.8148C17.1885 16.1016 17.5621 16.3725 17.5621 16.8242C17.5621 17.1854 17.2819 17.5467 16.8148 17.5467H9.52853Z" fill="#1D1D1D"/>
<path d="M12.0502 22.4266C11.77 22.6976 11.303 22.6976 11.0227 22.4266C10.7424 22.1556 10.7424 21.7041 11.0227 21.4331L16.2538 16.3751C16.5341 16.1041 17.0012 16.1041 17.2814 16.3751C17.5616 16.6461 17.5616 17.0976 17.2814 17.3686L12.0502 22.4266Z" fill="#1D1D1D"/>
<path d="M22.7029 21.5234C22.9831 21.7944 22.9831 22.246 22.7029 22.517C22.4227 22.7879 21.9556 22.7879 21.6753 22.517L16.3508 17.3686C16.0706 17.0976 16.0706 16.6461 16.3508 16.3751C16.631 16.1041 17.0981 16.1041 17.3784 16.3751L22.7029 21.5234Z" fill="#1D1D1D"/>
<path d="M24.1039 16.1953C24.4776 16.1953 24.8512 16.4663 24.8512 16.9178C24.8512 17.2792 24.571 17.6404 24.1039 17.6404H16.8176C16.444 17.6404 16.0703 17.3695 16.0703 16.9178C16.0703 16.5566 16.3505 16.1953 16.8176 16.1953H24.1039Z" fill="#1D1D1D"/>
<path d="M16.1602 9.78112C16.1602 9.41986 16.4405 9.05859 16.9078 9.05859C17.2817 9.05859 17.6555 9.32956 17.6555 9.78112V16.8262C17.6555 17.1875 17.3751 17.5488 16.9078 17.5488C16.534 17.5488 16.1602 17.2779 16.1602 16.8262V9.78112Z" fill="#1D1D1D"/>
<path fill-rule="evenodd" clip-rule="evenodd" d="M16.8133 12.8516C19.0552 12.8516 20.9235 14.658 20.9235 16.8257C20.9235 18.9934 19.0552 20.7999 16.8133 20.7999C14.5714 20.7999 12.7031 18.9934 12.7031 16.8257C12.7031 14.658 14.5714 12.8516 16.8133 12.8516Z" fill="#FFC300"/>
<path d="M16.8145 12.1289C18.1223 12.1289 19.3367 12.6708 20.2708 13.4837C21.1116 14.2966 21.6721 15.4708 21.6721 16.8256C21.6721 18.0901 21.1116 19.2643 20.2708 20.1675C19.4301 20.9804 18.2158 21.5223 16.8145 21.5223C15.5067 21.5223 14.2924 20.9804 13.3582 20.1675C12.5175 19.3546 11.957 18.1804 11.957 16.8256C11.957 15.5611 12.5175 14.3869 13.3582 13.4837C14.2924 12.6708 15.5067 12.1289 16.8145 12.1289ZM19.2433 14.5676C18.5894 13.9353 17.7487 13.574 16.8145 13.574C15.8804 13.574 15.0397 13.9353 14.3858 14.5676C13.7319 15.1998 13.3582 16.0127 13.3582 16.916C13.3582 17.8191 13.7319 18.632 14.3858 19.2643C15.0397 19.8966 15.8804 20.2578 16.8145 20.2578C17.7487 20.2578 18.5894 19.8966 19.2433 19.2643C19.8972 18.632 20.2708 17.8191 20.2708 16.916C20.2708 15.9224 19.8972 15.1095 19.2433 14.5676Z" fill="#1D1D1D"/>
<path d="M59.2798 20.3906H57.5193V25.4162H54.7752V20.3906H52.9802L50.2705 25.4162H47.043L50.6674 18.8936L47.2673 12.9414H50.2187L52.9284 17.9848H54.7752V12.9414H57.5193V17.9848H59.3144L62.0413 12.9414H64.9924L61.6099 18.8936L65.2168 25.4162H61.9896L59.2798 20.3906Z" fill="#1D1D1D"/>
<path d="M66.5547 12.9414H69.3334V21.0678L75.0981 12.9414H77.7216V25.4162H74.9601V17.3076L69.1954 25.4162H66.5547V12.9414Z" fill="#1D1D1D"/>
<path d="M89.1048 18.9115C89.8416 19.1372 90.4055 19.5055 90.7965 20.0164C91.1874 20.5272 91.3832 21.1569 91.3832 21.9054C91.3832 23.0103 90.9751 23.8717 90.1582 24.4895C89.3527 25.1073 88.1964 25.4162 86.6885 25.4162H80.7344V12.9414H86.3611C87.7647 12.9414 88.8575 13.2206 89.6401 13.779C90.4227 14.3374 90.8136 15.1334 90.8136 16.167C90.8136 16.7848 90.6642 17.3313 90.3648 17.8065C90.066 18.2699 89.6458 18.6382 89.1048 18.9115ZM83.5131 18.1095H86.1195C86.7292 18.1095 87.1894 17.9848 87.5003 17.7353C87.8105 17.4739 87.9663 17.0937 87.9663 16.5947C87.9663 16.1076 87.8048 15.7334 87.4825 15.472C87.1722 15.2106 86.7177 15.0799 86.1195 15.0799H83.5131V18.1095ZM86.5855 23.2777C87.897 23.2777 88.553 22.743 88.553 21.6737C88.553 20.6401 87.897 20.1233 86.5855 20.1233H83.5131V23.2777H86.5855Z" fill="#1D1D1D"/>
<path d="M101.771 22.743H96.1616L95.0911 25.4162H92.2266L97.6111 12.9414H100.373L105.775 25.4162H102.841L101.771 22.743ZM100.891 20.551L98.9747 15.7749L97.0593 20.551H100.891Z" fill="#1D1D1D"/>
<path d="M116.401 12.9414V25.4162H113.639V22.1015H111.085L108.945 25.4162H105.994L108.514 21.6559C107.696 21.3114 107.069 20.7946 106.632 20.1055C106.195 19.4045 105.977 18.5669 105.977 17.5927C105.977 16.6303 106.189 15.8047 106.615 15.1155C107.041 14.4146 107.645 13.88 108.427 13.5117C109.21 13.1315 110.13 12.9414 111.189 12.9414H116.401ZM111.257 15.2938C110.463 15.2938 109.854 15.4839 109.428 15.864C109.014 16.2443 108.807 16.8086 108.807 17.5571C108.807 18.2818 109.008 18.8402 109.411 19.2322C109.814 19.6243 110.406 19.8204 111.189 19.8204H113.639V15.2938H111.257Z" fill="#1D1D1D"/>
<path d="M132.691 18.9115C133.428 19.1372 133.991 19.5055 134.382 20.0164C134.774 20.5272 134.969 21.1569 134.969 21.9054C134.969 23.0103 134.561 23.8717 133.744 24.4895C132.939 25.1073 131.782 25.4162 130.275 25.4162H124.32V12.9414H129.947C131.351 12.9414 132.443 13.2206 133.226 13.779C134.009 14.3374 134.4 15.1334 134.4 16.167C134.4 16.7848 134.25 17.3313 133.951 17.8065C133.652 18.2699 133.232 18.6382 132.691 18.9115ZM127.099 18.1095H129.705C130.315 18.1095 130.775 17.9848 131.086 17.7353C131.396 17.4739 131.552 17.0937 131.552 16.5947C131.552 16.1076 131.391 15.7334 131.068 15.472C130.758 15.2106 130.304 15.0799 129.705 15.0799H127.099V18.1095ZM130.171 23.2777C131.483 23.2777 132.139 22.743 132.139 21.6737C132.139 20.6401 131.483 20.1233 130.171 20.1233H127.099V23.2777H130.171Z" fill="#1D1D1D"/>
<path d="M142.942 25.6291C141.689 25.6291 140.555 25.3499 139.542 24.7915C138.541 24.2331 137.753 23.4668 137.178 22.4926C136.614 21.5065 136.332 20.4016 136.332 19.1778C136.332 17.9541 136.614 16.8551 137.178 15.8809C137.753 14.8948 138.541 14.1226 139.542 13.5641C140.555 13.0057 141.689 12.7266 142.942 12.7266C144.196 12.7266 145.324 13.0057 146.325 13.5641C147.326 14.1226 148.114 14.8948 148.69 15.8809C149.265 16.8551 149.553 17.9541 149.553 19.1778C149.553 20.4016 149.265 21.5065 148.69 22.4926C148.114 23.4668 147.326 24.2331 146.325 24.7915C145.324 25.3499 144.196 25.6291 142.942 25.6291ZM142.942 23.1697C143.656 23.1697 144.3 23.0035 144.875 22.6708C145.451 22.3262 145.9 21.851 146.222 21.2451C146.556 20.6392 146.722 19.9501 146.722 19.1778C146.722 18.4056 146.556 17.7165 146.222 17.1105C145.9 16.5047 145.451 16.0353 144.875 15.7027C144.3 15.3582 143.656 15.1859 142.942 15.1859C142.229 15.1859 141.585 15.3582 141.01 15.7027C140.434 16.0353 139.98 16.5047 139.646 17.1105C139.324 17.7165 139.163 18.4056 139.163 19.1778C139.163 19.9501 139.324 20.6392 139.646 21.2451C139.98 21.851 140.434 22.3262 141.01 22.6708C141.585 23.0035 142.229 23.1697 142.942 23.1697Z" fill="#1D1D1D"/>
<path d="M163.833 23.0638V28.0003H161.244V25.4162H152.718V28.0003H150.129L150.146 23.0638H150.629C151.355 23.0401 151.866 22.4935 152.166 21.4243C152.465 20.355 152.649 18.8283 152.718 16.8442L152.856 12.9414H162.141V23.0638H163.833ZM155.186 17.1115C155.128 18.5966 155.007 19.8441 154.824 20.854C154.639 21.852 154.358 22.5886 153.978 23.0638H159.38V15.2938H155.238L155.186 17.1115Z" fill="#1D1D1D"/>
<path d="M173.997 22.743H168.388L167.318 25.4162H164.453L169.838 12.9414H172.599L178.001 25.4162H175.068L173.997 22.743ZM173.117 20.551L171.201 15.7749L169.285 20.551H173.117Z" fill="#1D1D1D"/>
</g>
<defs>
<clipPath id="clip0_971_13336">
<rect width="178" height="35" fill="white"/>
</clipPath>
</defs>
</svg>
