<svg width="120" height="120" viewBox="0 0 120 120" fill="none" xmlns="http://www.w3.org/2000/svg">
<path d="M99.1061 28.5781C99.1061 25.791 97.8105 23.3136 96.1912 21.7653C94.2478 19.9073 91.6569 18.9782 89.0658 18.9782C86.1509 18.9782 83.56 20.2169 81.9407 21.7653C79.9973 23.6234 79.0258 26.1008 79.0258 28.5781V38.1781H89.0658C91.9807 38.1781 94.5718 36.9392 96.1912 35.391C97.8105 33.8426 99.1061 31.3651 99.1061 28.5781ZM99.7536 18.3589C102.345 20.8363 104.288 24.5524 104.288 28.5781C104.288 32.604 102.669 36.32 99.7536 38.7975C97.1627 41.2747 93.2763 43.1328 89.0658 43.1328H76.4349H73.8438V40.6555V28.5781C73.8438 24.5524 75.4631 20.8363 78.378 18.3589C80.9691 15.8815 84.8556 14.0234 89.0658 14.0234C92.9523 14.0234 96.8389 15.8815 99.7536 18.3589Z" fill="#E0EEFB"/>
<path d="M27.8471 18.9782C24.9322 18.9782 22.3413 20.2169 20.7218 21.7653C18.7786 23.6234 17.807 26.1008 17.807 28.5781C17.807 31.3651 19.1025 33.8426 20.7218 35.391C22.6651 37.2491 25.2562 38.1781 27.8471 38.1781H37.8871V28.5781C37.8871 25.791 36.5918 23.3136 34.9722 21.7653C33.3529 19.9073 30.762 18.9782 27.8471 18.9782ZM17.1592 18.3589C19.7502 15.8815 23.6366 14.0234 27.8471 14.0234C32.0575 14.0234 35.944 15.5718 38.5349 18.3589C41.126 20.8363 43.0691 24.5524 43.0691 28.5781V40.6555V43.1328H40.4782H27.8471C23.6366 43.1328 19.7502 41.5846 17.1592 38.7975C14.5683 36.32 12.625 32.604 12.625 28.5781C12.625 24.5524 14.5683 21.146 17.1592 18.3589Z" fill="#E0EEFB"/>
<path d="M65.7415 9.69498C63.7982 7.83695 61.2073 6.90791 58.6161 6.90791C56.0252 6.90791 53.4341 7.83695 51.491 9.69498C49.5477 11.553 48.5761 14.0304 48.5761 16.5078C48.5761 18.9852 49.5477 21.4626 51.491 23.3206L58.6161 30.1335L65.7415 23.3206C67.6846 21.4626 68.6564 18.9852 68.6564 16.5078C68.6564 14.0304 67.6846 11.553 65.7415 9.69498ZM68.9802 6.28858C72.2189 9.07563 73.5144 12.7917 73.5144 16.5078C73.5144 20.2239 71.8951 23.94 68.9802 26.7271L59.9117 35.398L58.2924 36.9463L56.673 35.398L47.6046 26.7271C44.6897 23.94 43.0703 20.2239 43.0703 16.5078C43.0703 12.7917 44.6897 9.07563 47.6046 6.28858C50.5195 3.5015 54.4059 1.95312 58.2924 1.95312C62.1788 1.95312 66.0653 3.5015 68.9802 6.28858Z" fill="#E0EEFB"/>
<path d="M38.8695 42.5134C37.8977 41.5844 37.8977 40.0359 38.8695 39.1069C39.841 38.1779 41.4604 38.1779 42.4319 39.1069L60.2451 56.1391C61.2166 57.0681 61.2166 58.6165 60.2451 59.5455C59.2735 60.4746 57.6542 60.4746 56.6824 59.5455L38.8695 42.5134Z" fill="#E0EEFB"/>
<path d="M74.171 39.4155C75.1425 38.4865 76.7621 38.4865 77.7336 39.4155C78.7052 40.3445 78.7052 41.893 77.7336 42.822L60.2445 59.5443C59.2727 60.4733 57.6534 60.4733 56.6818 59.5443C55.7102 58.6153 55.7102 57.0671 56.6818 56.1381L74.171 39.4155Z" fill="#E0EEFB"/>
<path d="M108.829 64.8129C110.772 62.9549 111.744 60.4775 111.744 58C111.744 55.5225 110.772 53.0453 108.829 51.1873C106.886 49.3292 104.295 48.4002 101.704 48.4002C99.1128 48.4002 96.5217 49.3292 94.5786 51.1873L87.4533 58L94.5786 64.8129C96.5217 66.671 99.1128 67.6 101.704 67.6C104.295 67.6 106.886 66.671 108.829 64.8129ZM112.392 67.9096C109.477 70.6967 105.59 72.2451 101.704 72.2451C97.8173 72.2451 93.9308 70.6967 91.0159 67.9096L81.9475 59.5484L80.3281 58L81.9475 56.4516L91.0159 47.7808C93.9308 44.9937 97.8173 43.4453 101.704 43.4453C105.59 43.4453 109.477 44.9937 112.392 47.7808C115.306 50.5679 116.926 54.2839 116.926 58C116.602 61.4065 115.306 65.1225 112.392 67.9096Z" fill="#E0EEFB"/>
<path d="M89.0658 96.717C91.9807 96.717 94.5718 95.4784 96.1912 93.9299C98.1343 92.0719 99.1061 89.5947 99.1061 87.1172C99.1061 84.3301 97.8105 81.8527 96.1912 80.3045C94.2478 78.4464 91.6569 77.2076 89.0658 77.2076H78.702V86.8076C78.702 89.5947 79.9973 92.0719 81.6167 93.6203C83.56 95.4784 86.1509 96.717 89.0658 96.717ZM99.7536 97.3364C97.1627 99.8139 93.2763 101.672 89.0658 101.672C84.8556 101.672 80.9691 100.123 78.378 97.3364C75.7871 94.8589 73.8438 91.1429 73.8438 87.1172V75.04V72.5625H76.4349H89.0658C93.2763 72.5625 97.1627 74.1109 99.7536 76.898C102.345 79.3755 104.288 83.0915 104.288 87.1172C103.964 90.8333 102.345 94.5493 99.7536 97.3364Z" fill="#E0EEFB"/>
<path fill-rule="evenodd" clip-rule="evenodd" d="M49.5584 113.75C54.4166 118.395 62.5133 118.395 67.3716 113.75C72.2296 109.105 72.2296 101.363 67.3716 96.7176L58.3031 88.0469L49.5584 96.408C44.3764 101.053 44.3764 108.795 49.5584 113.75Z" fill="#E0EEFB"/>
<path d="M51.167 111.88C53.1103 113.738 55.7015 114.667 58.2924 114.667C60.8833 114.667 63.4744 113.738 65.4175 111.88C67.3608 110.022 68.3324 107.545 68.3324 105.067C68.3324 102.59 67.3608 100.113 65.4175 98.2546L58.2924 91.4416L51.167 98.2546C49.2239 100.113 48.2523 102.59 48.2523 105.067C48.2523 107.545 49.2239 110.022 51.167 111.88ZM47.6046 115.286C44.6897 112.499 43.0703 108.783 43.0703 105.067C43.0703 101.351 44.6897 97.6352 47.6046 94.8481L56.673 86.1771L58.2924 84.6289L59.9117 86.1771L68.9802 94.8481C71.8951 97.6352 73.5144 101.351 73.5144 105.067C73.5144 108.783 71.8951 112.499 68.9802 115.286C66.0653 118.074 62.1788 119.622 58.2924 119.622C54.4059 119.622 50.5195 118.074 47.6046 115.286Z" fill="#E0EEFB"/>
<path d="M17.807 87.1172C17.807 89.9043 19.1025 92.3817 20.7218 93.9299C22.6651 95.7882 25.2562 96.717 27.8471 96.717C30.762 96.717 33.3529 95.4784 34.9722 93.9299C36.9155 92.0719 37.8871 89.5947 37.8871 87.1172V77.2076H27.8471C24.9322 77.2076 22.3413 78.4462 20.7218 79.9947C18.7786 81.8527 17.807 84.3301 17.807 87.1172ZM17.1592 97.3364C14.5683 94.8589 12.625 91.1429 12.625 87.1172C12.625 83.0915 14.2444 79.3755 17.1592 76.898C19.7502 74.4205 23.6366 72.5625 27.8471 72.5625H40.4782H43.0691V75.04V87.1172C43.0691 91.1429 41.4498 94.8589 38.5349 97.3364C35.944 99.8139 32.0575 101.672 27.8471 101.672C23.6366 101.362 20.0741 99.8139 17.1592 97.3364Z" fill="#E0EEFB"/>
<path d="M8.09687 50.8787C6.15362 52.7367 5.18199 55.214 5.18199 57.6914C5.18199 60.1689 6.15362 62.6463 8.09687 64.5044C10.0401 66.3624 12.6311 67.2914 15.2221 67.2914C17.8131 67.2914 20.4041 66.3624 22.3474 64.5044L29.4725 57.6914L22.3474 50.8787C20.4041 49.0206 17.8131 48.0916 15.2221 48.0916C12.6311 48.0916 10.0401 49.0206 8.09687 50.8787ZM4.53424 47.4722C7.44911 44.6852 11.3356 43.1367 15.2221 43.1367C19.1086 43.1367 22.9952 44.6852 25.9099 47.4722L34.9783 56.1432L36.5979 57.6914L34.9783 59.2398L25.9099 67.9106C22.9952 70.6979 19.1086 72.2461 15.2221 72.2461C11.3356 72.2461 7.44911 71.0075 4.53424 67.9106C1.61937 65.1236 0 61.4075 0 57.6914C0 53.9753 1.61937 50.2593 4.53424 47.4722Z" fill="#E0EEFB"/>
<path d="M33.0284 60.1578C31.7328 60.1578 30.4375 59.2288 30.4375 57.6806C30.4375 56.4417 31.4091 55.2031 33.0284 55.2031H58.2907C59.5863 55.2031 60.8816 56.1321 60.8816 57.6806C60.8816 58.9192 59.91 60.1578 58.2907 60.1578H33.0284Z" fill="#E0EEFB"/>
<path d="M41.7757 76.8901C40.8042 77.8191 39.1848 77.8191 38.213 76.8901C37.2415 75.9611 37.2415 74.4128 38.213 73.4838L56.35 56.1421C57.3218 55.2131 58.9411 55.2131 59.9127 56.1421C60.8842 57.0711 60.8842 58.6193 59.9127 59.5483L41.7757 76.8901Z" fill="#E0EEFB"/>
<path d="M78.7052 73.7934C79.6768 74.7224 79.6768 76.2709 78.7052 77.1999C77.7336 78.1289 76.1143 78.1289 75.1425 77.1999L56.6818 59.5483C55.7102 58.6193 55.7102 57.0711 56.6818 56.1421C57.6534 55.2131 59.2727 55.2131 60.2445 56.1421L78.7052 73.7934Z" fill="#E0EEFB"/>
<path d="M83.5719 55.5273C84.8675 55.5273 86.1631 56.4564 86.1631 58.0046C86.1631 59.2434 85.1913 60.482 83.5719 60.482H58.3096C57.0143 60.482 55.7188 59.553 55.7188 58.0046C55.7188 56.766 56.6903 55.5273 58.3096 55.5273H83.5719Z" fill="#E0EEFB"/>
<path d="M56.0312 33.5241C56.0312 32.2855 57.0028 31.0469 58.6221 31.0469C59.9177 31.0469 61.2133 31.9759 61.2133 33.5241V57.6788C61.2133 58.9174 60.2415 60.1563 58.6221 60.1563C57.3266 60.1563 56.0312 59.2272 56.0312 57.6788V33.5241Z" fill="#E0EEFB"/>
<path fill-rule="evenodd" clip-rule="evenodd" d="M58.2974 44.0625C66.0703 44.0625 72.5479 50.256 72.5479 57.6882C72.5479 65.1203 66.0703 71.3138 58.2974 71.3138C50.5245 71.3138 44.0469 65.1203 44.0469 57.6882C44.0469 50.256 50.5245 44.0625 58.2974 44.0625Z" fill="#E0EEFB"/>
<path d="M58.2945 41.5859C62.8287 41.5859 67.0392 43.444 70.2779 46.231C73.1928 49.0181 75.1361 53.0438 75.1361 57.6888C75.1361 62.0243 73.1928 66.0502 70.2779 69.1469C67.363 71.9339 63.1527 73.792 58.2945 73.792C53.7603 73.792 49.55 71.9339 46.3111 69.1469C43.3965 66.3598 41.4531 62.3339 41.4531 57.6888C41.4531 53.3536 43.3965 49.3277 46.3111 46.231C49.55 43.444 53.7603 41.5859 58.2945 41.5859ZM66.7154 49.9471C64.4483 47.7792 61.5334 46.5406 58.2945 46.5406C55.0558 46.5406 52.1409 47.7792 49.8738 49.9471C47.6067 52.1147 46.3111 54.9018 46.3111 57.9987C46.3111 61.0953 47.6067 63.8824 49.8738 66.0502C52.1409 68.2179 55.0558 69.4565 58.2945 69.4565C61.5334 69.4565 64.4483 68.2179 66.7154 66.0502C68.9825 63.8824 70.2779 61.0953 70.2779 57.9987C70.2779 54.5922 68.9825 51.8051 66.7154 49.9471Z" fill="#E0EEFB"/>
</svg>
