<svg width="30" height="29" viewBox="0 0 30 29" fill="none" xmlns="http://www.w3.org/2000/svg">
<g clip-path="url(#clip0_971_13440)">
<path d="M24.6289 7.16708C24.6289 6.51677 24.3266 5.93869 23.9488 5.57743C23.4953 5.14389 22.8908 4.92712 22.2862 4.92712C21.606 4.92712 21.0015 5.21614 20.6237 5.57743C20.1702 6.01099 19.9435 6.58906 19.9435 7.16708V9.40708H22.2862C22.9663 9.40708 23.5709 9.11802 23.9488 8.75677C24.3266 8.39547 24.6289 7.81739 24.6289 7.16708ZM24.78 4.7826C25.3846 5.36066 25.838 6.22776 25.838 7.16708C25.838 8.10645 25.4602 8.97354 24.78 9.55161C24.1755 10.1296 23.2686 10.5632 22.2862 10.5632H19.339H18.7344V9.98515V7.16708C18.7344 6.22776 19.1122 5.36066 19.7924 4.7826C20.397 4.20454 21.3038 3.771 22.2862 3.771C23.193 3.771 24.0999 4.20454 24.78 4.7826Z" fill="#092C4F"/>
<path d="M8.00104 4.92712C7.32089 4.92712 6.71635 5.21614 6.33848 5.57743C5.88506 6.01099 5.65835 6.58906 5.65835 7.16708C5.65835 7.81739 5.96063 8.39547 6.33848 8.75677C6.7919 9.19031 7.39649 9.40708 8.00104 9.40708H10.3437V7.16708C10.3437 6.51677 10.0415 5.93869 9.66357 5.57743C9.28572 5.14389 8.68118 4.92712 8.00104 4.92712ZM5.50721 4.7826C6.11177 4.20454 7.0186 3.771 8.00104 3.771C8.98348 3.771 9.89032 4.13228 10.4949 4.7826C11.0995 5.36066 11.5528 6.22776 11.5528 7.16708V9.98515V10.5632H10.9483H8.00104C7.0186 10.5632 6.11177 10.2019 5.50721 9.55161C4.90264 8.97354 4.44922 8.10645 4.44922 7.16708C4.44922 6.22776 4.90264 5.43292 5.50721 4.7826Z" fill="#092C4F"/>
<path d="M16.8407 2.76493C16.3873 2.33139 15.7827 2.11461 15.1781 2.11461C14.5736 2.11461 13.969 2.33139 13.5156 2.76493C13.0622 3.19848 12.8355 3.77653 12.8355 4.35459C12.8355 4.93265 13.0622 5.51071 13.5156 5.94424L15.1781 7.53393L16.8407 5.94424C17.2941 5.51071 17.5209 4.93265 17.5209 4.35459C17.5209 3.77653 17.2941 3.19848 16.8407 2.76493ZM17.5964 1.9701C18.3521 2.62041 18.6544 3.4875 18.6544 4.35459C18.6544 5.22168 18.2766 6.08877 17.5964 6.73908L15.4804 8.76231L15.1026 9.12356L14.7247 8.76231L12.6088 6.73908C11.9286 6.08877 11.5508 5.22168 11.5508 4.35459C11.5508 3.4875 11.9286 2.62041 12.6088 1.9701C13.2889 1.31978 14.1958 0.958496 15.1026 0.958496C16.0094 0.958496 16.9163 1.31978 17.5964 1.9701Z" fill="#092C4F"/>
<path d="M10.5724 10.4159C10.3457 10.1991 10.3457 9.83785 10.5724 9.62107C10.7991 9.4043 11.1769 9.4043 11.4036 9.62107L15.5601 13.5952C15.7867 13.812 15.7867 14.1733 15.5601 14.3901C15.3334 14.6069 14.9555 14.6069 14.7288 14.3901L10.5724 10.4159Z" fill="#092C4F"/>
<path d="M18.8094 9.6992C19.0361 9.48243 19.414 9.48243 19.6407 9.6992C19.8674 9.91597 19.8674 10.2773 19.6407 10.494L15.5599 14.3959C15.3332 14.6127 14.9553 14.6127 14.7286 14.3959C14.5019 14.1791 14.5019 13.8179 14.7286 13.6011L18.8094 9.6992Z" fill="#092C4F"/>
<path d="M26.8963 15.621C27.3497 15.1875 27.5764 14.6094 27.5764 14.0313C27.5764 13.4533 27.3497 12.8753 26.8963 12.4417C26.4429 12.0082 25.8383 11.7914 25.2337 11.7914C24.6292 11.7914 24.0246 12.0082 23.5712 12.4417L21.9086 14.0313L23.5712 15.621C24.0246 16.0546 24.6292 16.2713 25.2337 16.2713C25.8383 16.2713 26.4429 16.0546 26.8963 15.621ZM27.7276 16.3436C27.0474 16.9939 26.1406 17.3552 25.2337 17.3552C24.3269 17.3552 23.4201 16.9939 22.7399 16.3436L20.6239 14.3926L20.2461 14.0313L20.6239 13.67L22.7399 11.6469C23.4201 10.9966 24.3269 10.6353 25.2337 10.6353C26.1406 10.6353 27.0474 10.9966 27.7276 11.6469C28.4077 12.2972 28.7855 13.1643 28.7855 14.0313C28.71 14.8262 28.4077 15.6933 27.7276 16.3436Z" fill="#092C4F"/>
<path d="M22.2862 23.0633C22.9663 23.0633 23.5709 22.7743 23.9488 22.413C24.4022 21.9794 24.6289 21.4014 24.6289 20.8233C24.6289 20.173 24.3266 19.595 23.9488 19.2337C23.4953 18.8002 22.8908 18.5111 22.2862 18.5111H19.868V20.7511C19.868 21.4014 20.1702 21.9794 20.5481 22.3407C21.0015 22.7743 21.606 23.0633 22.2862 23.0633ZM24.78 23.2078C24.1755 23.7859 23.2686 24.2194 22.2862 24.2194C21.3038 24.2194 20.397 23.8581 19.7924 23.2078C19.1878 22.6298 18.7344 21.7627 18.7344 20.8233V18.0053V17.4272H19.339H22.2862C23.2686 17.4272 24.1755 17.7885 24.78 18.4389C25.3846 19.0169 25.838 19.884 25.838 20.8233C25.7625 21.6904 25.3846 22.5575 24.78 23.2078Z" fill="#092C4F"/>
<path fill-rule="evenodd" clip-rule="evenodd" d="M13.0631 27.0388C14.1967 28.1227 16.0859 28.1227 17.2195 27.0388C18.353 25.955 18.353 24.1486 17.2195 23.0647L15.1035 21.0415L13.0631 22.9924C11.854 24.0763 11.854 25.8828 13.0631 27.0388Z" fill="#45C4FF"/>
<path d="M13.44 26.6086C13.8935 27.0422 14.4981 27.259 15.1026 27.259C15.7071 27.259 16.3117 27.0422 16.7651 26.6086C17.2186 26.1751 17.4453 25.597 17.4453 25.019C17.4453 24.4409 17.2186 23.8629 16.7651 23.4293L15.1026 21.8396L13.44 23.4293C12.9866 23.8629 12.7599 24.4409 12.7599 25.019C12.7599 25.597 12.9866 26.1751 13.44 26.6086ZM12.6088 27.4034C11.9286 26.7531 11.5508 25.886 11.5508 25.019C11.5508 24.1519 11.9286 23.2848 12.6088 22.6345L14.7247 20.6113L15.1026 20.25L15.4804 20.6113L17.5964 22.6345C18.2766 23.2848 18.6544 24.1519 18.6544 25.019C18.6544 25.886 18.2766 26.7531 17.5964 27.4034C16.9163 28.0538 16.0094 28.4151 15.1026 28.4151C14.1958 28.4151 13.2889 28.0538 12.6088 27.4034Z" fill="#092C4F"/>
<path d="M5.65835 20.8233C5.65835 21.4737 5.96063 22.0517 6.33848 22.413C6.7919 22.8466 7.39649 23.0633 8.00104 23.0633C8.68118 23.0633 9.28572 22.7743 9.66357 22.413C10.117 21.9794 10.3437 21.4014 10.3437 20.8233V18.5111H8.00104C7.32089 18.5111 6.71635 18.8001 6.33848 19.1614C5.88506 19.595 5.65835 20.173 5.65835 20.8233ZM5.50721 23.2078C4.90264 22.6298 4.44922 21.7627 4.44922 20.8233C4.44922 19.884 4.82708 19.0169 5.50721 18.4389C6.11177 17.8608 7.0186 17.4272 8.00104 17.4272H10.9483H11.5528V18.0053V20.8233C11.5528 21.7627 11.175 22.6298 10.4949 23.2078C9.89032 23.7859 8.98348 24.2194 8.00104 24.2194C7.0186 24.1472 6.18735 23.7859 5.50721 23.2078Z" fill="#092C4F"/>
<path d="M3.38927 12.369C2.93584 12.8025 2.70913 13.3805 2.70913 13.9586C2.70913 14.5367 2.93584 15.1147 3.38927 15.5483C3.84269 15.9818 4.44726 16.1986 5.05182 16.1986C5.65639 16.1986 6.26095 15.9818 6.71439 15.5483L8.37692 13.9586L6.71439 12.369C6.26095 11.9354 5.65639 11.7186 5.05182 11.7186C4.44726 11.7186 3.84269 11.9354 3.38927 12.369ZM2.55799 11.5741C3.23813 10.9238 4.14497 10.5625 5.05182 10.5625C5.95867 10.5625 6.86554 10.9238 7.54563 11.5741L9.66161 13.5973L10.0395 13.9586L9.66161 14.3199L7.54563 16.3431C6.86554 16.9934 5.95867 17.3547 5.05182 17.3547C4.14497 17.3547 3.23813 17.0657 2.55799 16.3431C1.87785 15.6928 1.5 14.8257 1.5 13.9586C1.5 13.0915 1.87785 12.2244 2.55799 11.5741Z" fill="#092C4F"/>
<path d="M9.21001 14.5413C8.90771 14.5413 8.60547 14.3246 8.60547 13.9633C8.60547 13.6743 8.83217 13.3853 9.21001 13.3853H15.1045C15.4068 13.3853 15.7091 13.602 15.7091 13.9633C15.7091 14.2523 15.4824 14.5413 15.1045 14.5413H9.21001Z" fill="#092C4F"/>
<path d="M11.2396 18.4413C11.0129 18.658 10.6351 18.658 10.4083 18.4413C10.1816 18.2245 10.1816 17.8633 10.4083 17.6465L14.6403 13.6001C14.867 13.3833 15.2449 13.3833 15.4715 13.6001C15.6982 13.8168 15.6982 14.1781 15.4715 14.3949L11.2396 18.4413Z" fill="#092C4F"/>
<path d="M19.8674 17.7187C20.0941 17.9355 20.0941 18.2968 19.8674 18.5136C19.6407 18.7303 19.2629 18.7303 19.0361 18.5136L14.7286 14.3949C14.5019 14.1781 14.5019 13.8168 14.7286 13.6001C14.9553 13.3833 15.3332 13.3833 15.5599 13.6001L19.8674 17.7187Z" fill="#092C4F"/>
<path d="M20.9952 13.4531C21.2975 13.4531 21.5998 13.6699 21.5998 14.0311C21.5998 14.3202 21.373 14.6092 20.9952 14.6092H15.1006C14.7984 14.6092 14.4961 14.3924 14.4961 14.0311C14.4961 13.7421 14.7228 13.4531 15.1006 13.4531H20.9952Z" fill="#092C4F"/>
<path d="M14.5781 8.31777C14.5781 8.02876 14.8048 7.73975 15.1827 7.73975C15.485 7.73975 15.7873 7.95652 15.7873 8.31777V13.9539C15.7873 14.2429 15.5605 14.5319 15.1827 14.5319C14.8804 14.5319 14.5781 14.3152 14.5781 13.9539V8.31777Z" fill="#092C4F"/>
<path fill-rule="evenodd" clip-rule="evenodd" d="M15.0946 10.7812C16.9083 10.7812 18.4198 12.2264 18.4198 13.9606C18.4198 15.6947 16.9083 17.1399 15.0946 17.1399C13.281 17.1399 11.7695 15.6947 11.7695 13.9606C11.7695 12.2264 13.281 10.7812 15.0946 10.7812Z" fill="#FFC300"/>
<path d="M15.1015 10.2031C16.1595 10.2031 17.142 10.6367 17.8977 11.287C18.5778 11.9373 19.0312 12.8766 19.0312 13.9605C19.0312 14.9721 18.5778 15.9115 17.8977 16.634C17.2175 17.2843 16.2351 17.7179 15.1015 17.7179C14.0435 17.7179 13.0612 17.2843 12.3054 16.634C11.6253 15.9837 11.1719 15.0443 11.1719 13.9605C11.1719 12.9489 11.6253 12.0095 12.3054 11.287C13.0612 10.6367 14.0435 10.2031 15.1015 10.2031ZM17.0664 12.1541C16.5374 11.6482 15.8573 11.3592 15.1015 11.3592C14.3458 11.3592 13.6657 11.6482 13.1367 12.1541C12.6077 12.6598 12.3054 13.3102 12.3054 14.0328C12.3054 14.7553 12.6077 15.4056 13.1367 15.9115C13.6657 16.4172 14.3458 16.7063 15.1015 16.7063C15.8573 16.7063 16.5374 16.4172 17.0664 15.9115C17.5954 15.4056 17.8977 14.7553 17.8977 14.0328C17.8977 13.2379 17.5954 12.5876 17.0664 12.1541Z" fill="#092C4F"/>
</g>
<defs>
<clipPath id="clip0_971_13440">
<rect width="29" height="28" fill="white" transform="translate(0.5 0.5)"/>
</clipPath>
</defs>
</svg>
