<svg width="42" height="30" viewBox="0 0 42 30" fill="none" xmlns="http://www.w3.org/2000/svg">
<path d="M21 12.9167C24.4518 12.9167 27.25 10.1185 27.25 6.66675C27.25 3.21497 24.4518 0.416748 21 0.416748C17.5482 0.416748 14.75 3.21497 14.75 6.66675C14.75 10.1185 17.5482 12.9167 21 12.9167Z" fill="#092C4F"/>
<path d="M21 29.5834C27.9036 29.5834 33.5 26.7852 33.5 23.3334C33.5 19.8816 27.9036 17.0834 21 17.0834C14.0965 17.0834 8.50002 19.8816 8.50002 23.3334C8.50002 26.7852 14.0965 29.5834 21 29.5834Z" fill="#092C4F"/>
<path d="M9.29513 17.1241C4.15 17.4414 0.166687 19.6346 0.166687 22.293C0.166687 24.4846 2.87396 26.3601 6.70758 27.1289C5.85092 25.9689 5.37502 24.6851 5.37502 23.3347C5.37502 20.9525 6.85577 18.7779 9.29513 17.1241Z" fill="#092C4F"/>
<path d="M36.6267 23.3347C36.6267 24.6851 36.1508 25.9689 35.2941 27.1289C39.1277 26.3601 41.835 24.4846 41.835 22.293C41.835 19.6346 37.8517 17.4414 32.7066 17.1241C35.1459 18.7779 36.6267 20.9525 36.6267 23.3347Z" fill="#092C4F"/>
<path d="M28.7474 11.9488C29.775 10.4447 30.376 8.62589 30.376 6.66675C30.376 6.01663 30.3098 5.38196 30.1838 4.76912C30.5737 4.64842 30.9881 4.58342 31.4176 4.58342C33.7188 4.58342 35.5843 6.4489 35.5843 8.75008C35.5843 11.0513 33.7188 12.9167 31.4176 12.9167C30.4016 12.9167 29.4705 12.5531 28.7474 11.9488Z" fill="#092C4F"/>
<path d="M10.5834 4.58341C11.0129 4.58341 11.4273 4.64842 11.8172 4.76912C11.6912 5.38196 11.625 6.01663 11.625 6.66675C11.625 8.62589 12.226 10.4447 13.2536 11.9488C12.5305 12.5531 11.5994 12.9167 10.5834 12.9167C8.28217 12.9167 6.41669 11.0513 6.41669 8.75008C6.41669 6.44889 8.28217 4.58341 10.5834 4.58341Z" fill="#092C4F"/>
</svg>
